<svg xmlns="http://www.w3.org/2000/svg" viewBox="0 0 320 200"><defs><style>.cls-1{fill:#fff;}.cls-2,.cls-4{fill:none;stroke-miterlimit:10;}.cls-2{stroke:#ccc;stroke-width:0.75px;}.cls-3{fill:#f7931e;}.cls-4{stroke:#f7931e;stroke-width:2px;}.cls-5{fill:#484c63;}</style></defs><title>BTC Ticker</title><g id="Layer_2" data-name="Layer 2"><rect class="cls-1" width="320" height="200" rx="12" ry="12"/></g><g id="Layer_1" data-name="Layer 1"><line class="cls-2" y1="100" x2="320" y2="100"/><path class="cls-3" d="M104.88,29.56h13.26q6.36,0,10,3a9.59,9.59,0,0,1,3.66,7.83,9.53,9.53,0,0,1-1.89,5.88,8.39,8.39,0,0,1-4.83,3.24,9.67,9.67,0,0,1,5.55,3.06,9.4,9.4,0,0,1,2.25,6.6A10.19,10.19,0,0,1,129.63,67q-3.27,3-9.21,3H104.88Zm6.18,5.1V47.08h5.58q4.5,0,6.69-1.83a5.92,5.92,0,0,0,2.19-4.77,5.21,5.21,0,0,0-2-4.2q-1.95-1.62-5.91-1.62Zm0,30.24H119q7.62,0,7.62-6.3a5.85,5.85,0,0,0-2.07-4.77q-2.07-1.71-6.15-1.71h-7.32Z"/><path class="cls-3" d="M140.07,32.89a3.54,3.54,0,0,1-1-2.61,3.64,3.64,0,0,1,1-2.64,3.49,3.49,0,0,1,2.61-1.08,3.69,3.69,0,0,1,3.72,3.72,3.52,3.52,0,0,1-1.08,2.58,3.59,3.59,0,0,1-2.64,1.08A3.54,3.54,0,0,1,140.07,32.89ZM139.74,70V39.58h5.94V70Z"/><path class="cls-3" d="M161.82,44.14V60.88q0,4.38,4.2,4.38a6.49,6.49,0,0,0,4.14-1.32v5.28a10,10,0,0,1-4.86,1.08q-9.42,0-9.42-9.54V44.14h-4.74V39.58h4.74V32.14h5.94v7.44h8v4.56Z"/><path class="cls-3" d="M181,54.94a11.31,11.31,0,0,0,2.82,7.59,9.7,9.7,0,0,0,7.56,3,12.31,12.31,0,0,0,6.72-2V68.8a14.17,14.17,0,0,1-7.5,1.8q-7.14,0-11.4-4.5A15.68,15.68,0,0,1,175,54.88a15.92,15.92,0,0,1,4.29-11.19Q183.54,39,190.86,39a15.77,15.77,0,0,1,7.26,1.68v5.4a12.19,12.19,0,0,0-6.66-1.86,10,10,0,0,0-7.59,3A10.7,10.7,0,0,0,181,54.94Z"/><path class="cls-3" d="M217.62,70.54q-6.72,0-10.56-4.38a16.22,16.22,0,0,1-3.84-11.1,16.65,16.65,0,0,1,4-11.37,13.19,13.19,0,0,1,10.44-4.53q7,0,10.74,4.41a16.68,16.68,0,0,1,3.78,11.25,16.55,16.55,0,0,1-3.87,11.28Q224.4,70.54,217.62,70.54Zm-.06-26.4a7,7,0,0,0-6.06,3.09,13,13,0,0,0-2.16,7.65,12.67,12.67,0,0,0,2.22,7.59,7.7,7.7,0,0,0,12.27.09A12.85,12.85,0,0,0,226,54.94a13.64,13.64,0,0,0-2-7.77Q221.88,44.14,217.56,44.14Z"/><path class="cls-3" d="M239.31,32.89a3.54,3.54,0,0,1-1.05-2.61,3.64,3.64,0,0,1,1.05-2.64,3.49,3.49,0,0,1,2.61-1.08,3.69,3.69,0,0,1,3.72,3.72,3.52,3.52,0,0,1-1.08,2.58,3.59,3.59,0,0,1-2.64,1.08A3.54,3.54,0,0,1,239.31,32.89ZM239,70V39.58h5.94V70Z"/><path class="cls-3" d="M259.32,39.58V44.8q2.7-5.64,9.48-5.64a9.42,9.42,0,0,1,7.14,2.76,10.4,10.4,0,0,1,2.64,7.5V70H272.7V50.8a6.81,6.81,0,0,0-1.59-4.86,5.55,5.55,0,0,0-4.23-1.68,7,7,0,0,0-5.34,2.43,9.73,9.73,0,0,0-2.22,6.81V70h-5.88V39.58Z"/><path class="cls-4" d="M87,57.74A32,32,0,1,1,63.74,19,32,32,0,0,1,87,57.74Z"/><path class="cls-4" d="M71.11,46.44c.64-4.26-2.61-6.55-7-8.07l1.44-5.77L62,31.72l-1.4,5.62c-.92-.23-1.87-.45-2.81-.66L59.2,31l-3.51-.87-1.44,5.77L52,35.39v0l-4.84-1.21-.94,3.75s2.61.6,2.55.64a1.86,1.86,0,0,1,1.64,2l-1.64,6.57a2,2,0,0,1,.37.12l-.37-.1-2.3,9.21a1.28,1.28,0,0,1-1.61.83c0,.05-2.55-.63-2.55-.63l-1.74,4,4.56,1.14,2.51.65-1.46,5.83,3.51.88,1.44-5.77c1,.26,1.89.5,2.8.72L52.5,69.8l3.52.87,1.45-5.82c6,1.13,10.49.68,12.38-4.74,1.53-4.36-.07-6.87-3.22-8.51C68.92,51.07,70.65,49.56,71.11,46.44Zm-8,11.25c-1.09,4.36-8.43,2-10.81,1.41l1.93-7.73C56.59,52,64.22,53.14,63.09,57.69Zm1.08-11.31c-1,4-7.1,1.95-9.08,1.45l1.75-7C58.82,41.32,65.2,42.24,64.17,46.38Z"/><path class="cls-5" d="M17.08,114.15H21.9a6.58,6.58,0,0,1,4.6,1.54,5.08,5.08,0,0,1,1.7,3.94,5,5,0,0,1-1.71,3.9,6.49,6.49,0,0,1-4.44,1.5h-2.4v6H17.08Zm2.57,8.75h2.48a3.56,3.56,0,0,0,2.54-1,3.09,3.09,0,0,0,.93-2.29,3.19,3.19,0,0,0-1-2.39,3.68,3.68,0,0,0-2.66-1H19.65Z"/><path class="cls-5" d="M33.17,118.33v2.22a3.34,3.34,0,0,1,3.33-2.35,3.66,3.66,0,0,1,.77.08v2.39a3.13,3.13,0,0,0-1.17-.22,2.51,2.51,0,0,0-2.1,1.13,4.39,4.39,0,0,0-.83,2.67V131H30.72V118.33Z"/><path class="cls-5" d="M39.44,115.54a1.49,1.49,0,0,1-.44-1.09,1.53,1.53,0,0,1,.44-1.1,1.44,1.44,0,0,1,1.08-.45,1.49,1.49,0,0,1,1.1.45,1.55,1.55,0,0,1,0,2.18,1.48,1.48,0,0,1-1.1.44A1.46,1.46,0,0,1,39.44,115.54ZM39.3,131V118.33h2.47V131Z"/><path class="cls-5" d="M47.15,124.72a4.71,4.71,0,0,0,1.17,3.17,4.06,4.06,0,0,0,3.15,1.24,5.12,5.12,0,0,0,2.8-.83v2.2a5.86,5.86,0,0,1-3.12.75,6.23,6.23,0,0,1-4.75-1.87,6.56,6.56,0,0,1-1.78-4.68A6.63,6.63,0,0,1,46.41,120a6.28,6.28,0,0,1,4.84-1.94,6.49,6.49,0,0,1,3,.7v2.25a5,5,0,0,0-2.77-.77,4.12,4.12,0,0,0-3.16,1.25A4.39,4.39,0,0,0,47.15,124.72Z"/><path class="cls-5" d="M66.55,128.13v2.2a7.47,7.47,0,0,1-3.7.8,6.07,6.07,0,0,1-6.45-6.43,6.8,6.8,0,0,1,1.6-4.79,5.29,5.29,0,0,1,4.07-1.74,5,5,0,0,1,3.85,1.52,6.12,6.12,0,0,1,1.43,4.36,9.21,9.21,0,0,1-.15,1.62H58.87a3.74,3.74,0,0,0,1.4,2.53,4.7,4.7,0,0,0,2.9.88A5.76,5.76,0,0,0,66.55,128.13ZM65,123.75v-.45A3.53,3.53,0,0,0,64.2,121a2.6,2.6,0,0,0-2.08-.84,2.91,2.91,0,0,0-2.15.91,4.47,4.47,0,0,0-1.12,2.64Z"/><path class="cls-5" d="M82.92,135.9H80.25a17.84,17.84,0,0,1-4-11.43,17.48,17.48,0,0,1,3.87-11.14h2.65a18.51,18.51,0,0,0-2.91,5.43,18.23,18.23,0,0,0-1,5.84,17.35,17.35,0,0,0,1.05,5.78A19.43,19.43,0,0,0,82.92,135.9Z"/><path class="cls-5" d="M94.55,124.6V114.15h2.57v10.4a6.74,6.74,0,0,1-1.7,5,7.36,7.36,0,0,1-9.35,0,6.44,6.44,0,0,1-1.7-4.81v-10.6H87v10.57a4.13,4.13,0,0,0,1,3.14,3.78,3.78,0,0,0,2.73,1Q94.54,128.85,94.55,124.6Z"/><path class="cls-5" d="M109.82,114.83v2.55a6.9,6.9,0,0,0-3.8-1,3.44,3.44,0,0,0-2.16.61,2,2,0,0,0-.79,1.61,1.91,1.91,0,0,0,.78,1.6,11.78,11.78,0,0,0,2.37,1.3c.7.3,1.25.56,1.64.77a12.12,12.12,0,0,1,1.35.92,3.69,3.69,0,0,1,1.13,1.4,4.54,4.54,0,0,1,.36,1.86,4.27,4.27,0,0,1-1.58,3.5,6.27,6.27,0,0,1-4.07,1.27,8.92,8.92,0,0,1-4.6-1.07v-2.68A7.38,7.38,0,0,0,105,128.9a3.37,3.37,0,0,0,2.18-.64,2.13,2.13,0,0,0,.8-1.76,1.88,1.88,0,0,0-.48-1.24,3.48,3.48,0,0,0-1-.85q-.56-.28-1.65-.78l-.91-.43q-.27-.12-.87-.45a6.75,6.75,0,0,1-.88-.55c-.2-.15-.43-.36-.72-.62a3,3,0,0,1-.61-.8,8.2,8.2,0,0,1-.35-.94,4,4,0,0,1-.16-1.17,4.1,4.1,0,0,1,1.56-3.39,6.23,6.23,0,0,1,4-1.25A8.48,8.48,0,0,1,109.82,114.83Z"/><path class="cls-5" d="M113.75,114.15H119a8.47,8.47,0,0,1,6.15,2.32,7.92,7.92,0,0,1,2.4,5.93,8.75,8.75,0,0,1-2.26,6.18,8.14,8.14,0,0,1-6.24,2.42h-5.3Zm2.62,14.68H119a5.41,5.41,0,0,0,4.38-1.8,7,7,0,0,0,1.5-4.63,6,6,0,0,0-1.63-4.32,5.61,5.61,0,0,0-4.32-1.73h-2.58Z"/><path class="cls-5" d="M131.15,113.33A17.51,17.51,0,0,1,135,124.47a18,18,0,0,1-4,11.43h-2.7a19.46,19.46,0,0,0,3.07-5.54,17.35,17.35,0,0,0,1.06-5.76,18.11,18.11,0,0,0-1-5.81,19.65,19.65,0,0,0-2.9-5.46Z"/><path class="cls-5" d="M180.58,116.15,174.75,133H171.7L166,116.15h2.75l2.15,6.7c.47,1.43.9,2.8,1.28,4.11s.65,2.26.8,2.84l.25.9q.8-3,2.4-7.85l2.18-6.7Z"/><path class="cls-5" d="M188.35,133.22a5.53,5.53,0,0,1-4.4-1.82,6.75,6.75,0,0,1-1.6-4.62A7,7,0,0,1,184,122a5.49,5.49,0,0,1,4.35-1.89,5.55,5.55,0,0,1,4.47,1.84,7.71,7.71,0,0,1,0,9.39A5.6,5.6,0,0,1,188.35,133.22Zm0-11a2.9,2.9,0,0,0-2.52,1.29,5.43,5.43,0,0,0-.9,3.19,5.32,5.32,0,0,0,.92,3.16,3,3,0,0,0,2.53,1.29,3,3,0,0,0,2.59-1.25,5.36,5.36,0,0,0,.88-3.18,5.64,5.64,0,0,0-.85-3.23A3,3,0,0,0,188.32,122.22Z"/><path class="cls-5" d="M197.25,133V115.33h2.47V133Z"/><path class="cls-5" d="M211.15,120.33h2.45V133h-2.45v-2.17a3.87,3.87,0,0,1-4,2.32,4,4,0,0,1-3-1.11,4.18,4.18,0,0,1-1.1-3.07v-8.64h2.48v8a2.79,2.79,0,0,0,.64,2,2.27,2.27,0,0,0,1.76.69,2.87,2.87,0,0,0,2.29-1,4.23,4.23,0,0,0,.86-2.83Z"/><path class="cls-5" d="M219.5,120.33v2a3.69,3.69,0,0,1,3.57-2.2,3.44,3.44,0,0,1,3.65,2.45,4,4,0,0,1,1.53-1.81,4.07,4.07,0,0,1,2.25-.64,3.71,3.71,0,0,1,3,1.15,4.62,4.62,0,0,1,1,3.17V133H232v-8c0-1.82-.73-2.72-2.2-2.72a2.57,2.57,0,0,0-2,1,4.25,4.25,0,0,0-.86,2.88V133h-2.45v-8c0-1.82-.74-2.72-2.23-2.72a2.6,2.6,0,0,0-1.95,1,4.2,4.2,0,0,0-.87,2.88V133h-2.45V120.33Z"/><path class="cls-5" d="M247.25,130.13v2.2a7.47,7.47,0,0,1-3.7.8,6.07,6.07,0,0,1-6.45-6.43,6.8,6.8,0,0,1,1.6-4.79,5.29,5.29,0,0,1,4.07-1.74,5,5,0,0,1,3.85,1.52,6.12,6.12,0,0,1,1.43,4.36,9.21,9.21,0,0,1-.15,1.62h-8.33a3.74,3.74,0,0,0,1.4,2.53,4.7,4.7,0,0,0,2.9.88A5.76,5.76,0,0,0,247.25,130.13Zm-1.58-4.38v-.45a3.53,3.53,0,0,0-.77-2.26,2.6,2.6,0,0,0-2.08-.84,2.91,2.91,0,0,0-2.15.91,4.47,4.47,0,0,0-1.12,2.64Z"/><path class="cls-5" d="M263.62,137.9H261a17.84,17.84,0,0,1-4.05-11.43,17.48,17.48,0,0,1,3.87-11.14h2.65a18.51,18.51,0,0,0-2.91,5.43,18.23,18.23,0,0,0-1,5.84,17.35,17.35,0,0,0,1.05,5.78A19.43,19.43,0,0,0,263.62,137.9Z"/><path class="cls-5" d="M265.12,116.15h5.53a6.4,6.4,0,0,1,4.17,1.24,4.22,4.22,0,0,1,.74,5.71,3.46,3.46,0,0,1-2,1.35,4.06,4.06,0,0,1,2.31,1.27,3.92,3.92,0,0,1,.94,2.75,4.28,4.28,0,0,1-1.36,3.27A5.45,5.45,0,0,1,271.6,133h-6.48Zm2.58,2.13v5.17H270a4.28,4.28,0,0,0,2.79-.76,2.46,2.46,0,0,0,.91-2,2.17,2.17,0,0,0-.81-1.75,3.78,3.78,0,0,0-2.46-.67Zm0,12.6H271c2.12,0,3.17-.88,3.17-2.63a2.43,2.43,0,0,0-.86-2,4,4,0,0,0-2.56-.71H267.7Z"/><path class="cls-5" d="M289.77,116.15v2.15h-4.42V133h-2.58V118.3h-4.4v-2.15Z"/><path class="cls-5" d="M304.32,116.85v2.53a8.77,8.77,0,0,0-2-.84,9,9,0,0,0-2.27-.24,5.68,5.68,0,0,0-4.21,1.71,7,7,0,0,0,0,9.12,5.93,5.93,0,0,0,4.42,1.7,6.58,6.58,0,0,0,4.08-1.25v2.59a7.7,7.7,0,0,1-4.3,1,8.81,8.81,0,0,1-6.16-14.87,8.25,8.25,0,0,1,6.11-2.41A8.65,8.65,0,0,1,304.32,116.85Z"/><path class="cls-5" d="M308,115.33a17.51,17.51,0,0,1,3.85,11.14,18,18,0,0,1-4,11.43h-2.7a19.46,19.46,0,0,0,3.07-5.54,17.35,17.35,0,0,0,1.06-5.76,18.11,18.11,0,0,0-1-5.81,19.39,19.39,0,0,0-2.9-5.46Z"/><path d="M27.93,150.71v3.67a10,10,0,0,0-5.47-1.51,4.89,4.89,0,0,0-3.1.88,2.82,2.82,0,0,0-1.11,2.32,2.9,2.9,0,0,0,.34,1.42,3.45,3.45,0,0,0,1.19,1.19,12.53,12.53,0,0,0,1.44.85c.39.19,1,.48,1.89.86s1.65.78,2.23,1.1a12.68,12.68,0,0,1,1.87,1.31,5.29,5.29,0,0,1,1.5,2,6.61,6.61,0,0,1,.48,2.61,6.21,6.21,0,0,1-1.84,4.69,8,8,0,0,1-4.89,2.11V178h-3v-3.85a12.15,12.15,0,0,1-5-1.48v-3.85A10.7,10.7,0,0,0,21,171a5,5,0,0,0,3.15-.92,3,3,0,0,0,1.17-2.54,4.32,4.32,0,0,0-.07-.74,1.93,1.93,0,0,0-.29-.66,6.44,6.44,0,0,0-.4-.56,2.42,2.42,0,0,0-.59-.51l-.65-.43a6,6,0,0,0-.79-.43l-.81-.4c-.17-.08-.48-.22-.94-.41s-.77-.32-.93-.4a14,14,0,0,1-4.11-2.66,5.51,5.51,0,0,1-1.47-4.07,6,6,0,0,1,1.91-4.61,8.32,8.32,0,0,1,5-2v-3.85H24.3v3.92A12.61,12.61,0,0,1,27.93,150.71Z"/><path d="M31.42,157.73V154l5.87-3.49h3.2V174H37V154.31Z"/><path d="M49.24,170.94H59.47V174H44.38v-2.92A46.32,46.32,0,0,0,52,164.23c2.08-2.37,3.12-4.52,3.12-6.47A4.11,4.11,0,0,0,54,154.61a4.66,4.66,0,0,0-3.28-1.09A9.13,9.13,0,0,0,45,155.68v-3.5a9.85,9.85,0,0,1,6.16-2,8.1,8.1,0,0,1,5.47,1.86,6.55,6.55,0,0,1,2.16,5.27Q58.82,163.68,49.24,170.94Z"/><path d="M60.65,178.46,64.11,170h4.36l-4.72,8.42Z"/><path d="M83.44,162.16a5.41,5.41,0,0,1,4,5.58,5.75,5.75,0,0,1-2.3,4.78,9.19,9.19,0,0,1-5.83,1.8,9,9,0,0,1-5.69-1.74,5.62,5.62,0,0,1-2.23-4.66,5.69,5.69,0,0,1,4-5.73,5.94,5.94,0,0,1-2.64-2.09,5.43,5.43,0,0,1-1-3.2,6.09,6.09,0,0,1,2.2-5,8.13,8.13,0,0,1,5.33-1.8,8.4,8.4,0,0,1,5.43,1.75,6.06,6.06,0,0,1,2.2,5.06A5.48,5.48,0,0,1,83.44,162.16Zm-4.07,9.14a4.79,4.79,0,0,0,3.37-1.08,3.64,3.64,0,0,0,0-5.33,4.79,4.79,0,0,0-3.39-1.08A4.47,4.47,0,0,0,76.12,165a3.84,3.84,0,0,0-1.1,2.79,3.26,3.26,0,0,0,1.11,2.52A4.71,4.71,0,0,0,79.37,171.3Zm0-18.14a3.8,3.8,0,0,0-2.88,1.08,3.61,3.61,0,0,0-1,2.62,3.42,3.42,0,0,0,1.14,2.79,4.36,4.36,0,0,0,2.93,1,4,4,0,0,0,2.79-1,3.57,3.57,0,0,0,1.1-2.79,3.67,3.67,0,0,0-1-2.63A4,4,0,0,0,79.34,153.16Z"/><path d="M89.71,157.73V154l5.86-3.49h3.21V174H95.29V154.31Z"/><path d="M115.05,162.16a5.41,5.41,0,0,1,4,5.58,5.77,5.77,0,0,1-2.3,4.78,9.19,9.19,0,0,1-5.83,1.8,9,9,0,0,1-5.69-1.74,5.62,5.62,0,0,1-2.23-4.66,5.69,5.69,0,0,1,4-5.73,5.89,5.89,0,0,1-2.64-2.09,5.43,5.43,0,0,1-1-3.2,6.07,6.07,0,0,1,2.2-5,8.13,8.13,0,0,1,5.33-1.8,8.4,8.4,0,0,1,5.43,1.75,6.06,6.06,0,0,1,2.2,5.06A5.48,5.48,0,0,1,115.05,162.16ZM111,171.3a4.79,4.79,0,0,0,3.37-1.08,3.48,3.48,0,0,0,1.17-2.66,3.54,3.54,0,0,0-1.15-2.67,4.79,4.79,0,0,0-3.39-1.08,4.51,4.51,0,0,0-3.26,1.17,3.87,3.87,0,0,0-1.09,2.79,3.26,3.26,0,0,0,1.11,2.52A4.71,4.71,0,0,0,111,171.3Zm0-18.14a3.8,3.8,0,0,0-2.88,1.08,3.61,3.61,0,0,0-1,2.62,3.42,3.42,0,0,0,1.14,2.79,4.36,4.36,0,0,0,2.93,1,4,4,0,0,0,2.79-1,3.57,3.57,0,0,0,1.1-2.79,3.67,3.67,0,0,0-1-2.63A4,4,0,0,0,111,153.16Z"/><path d="M168,173.27v-3.42a9.36,9.36,0,0,0,3.88.83q6.2,0,7.13-7.35a6.44,6.44,0,0,1-5.15,2,6.83,6.83,0,0,1-5-2.09,7.5,7.5,0,0,1-2.07-5.51,8.06,8.06,0,0,1,2.05-5.65,7.21,7.21,0,0,1,5.58-2.24,7.07,7.07,0,0,1,6.14,3,13,13,0,0,1,2.11,7.69q0,6.4-2.72,9.94a9.25,9.25,0,0,1-7.79,3.53A11.67,11.67,0,0,1,168,173.27Zm6.73-11a5.42,5.42,0,0,0,4.43-2.12A10.72,10.72,0,0,0,178,155a3.7,3.7,0,0,0-3.4-1.92,3.81,3.81,0,0,0-3,1.24,4.88,4.88,0,0,0-1.12,3.37,4.76,4.76,0,0,0,1.17,3.4A4.08,4.08,0,0,0,174.74,162.29Z"/><path d="M200.26,150.05v3.42a7.07,7.07,0,0,0-3.27-.72,6.32,6.32,0,0,0-5.08,2.25,11.14,11.14,0,0,0-2.41,5.78,7.71,7.71,0,0,1,5.54-2.27,6.5,6.5,0,0,1,5.06,2.05A7.79,7.79,0,0,1,202,166a8.33,8.33,0,0,1-2.08,5.87,8,8,0,0,1-11.9-.79,13.73,13.73,0,0,1-2.18-8.11,15,15,0,0,1,3-9.68,9.74,9.74,0,0,1,8-3.78A10.74,10.74,0,0,1,200.26,150.05Zm-6,20.88a3.58,3.58,0,0,0,3-1.35,5.5,5.5,0,0,0,1.08-3.54,4.67,4.67,0,0,0-1.08-3.25,3.7,3.7,0,0,0-2.88-1.18,6.6,6.6,0,0,0-5,2.34,9.11,9.11,0,0,0,1.49,5.23A4.13,4.13,0,0,0,194.29,170.93Z"/><path d="M216.82,161.82a5.42,5.42,0,0,1,4,5.58,5.75,5.75,0,0,1-2.3,4.79,9.19,9.19,0,0,1-5.83,1.8,9,9,0,0,1-5.69-1.74,5.63,5.63,0,0,1-2.23-4.67,5.69,5.69,0,0,1,4-5.72,6,6,0,0,1-2.64-2.09,5.43,5.43,0,0,1-1-3.2,6.09,6.09,0,0,1,2.2-5,8.13,8.13,0,0,1,5.33-1.8,8.46,8.46,0,0,1,5.43,1.74,6.09,6.09,0,0,1,2.2,5.06A5.46,5.46,0,0,1,216.82,161.82ZM212.75,171a4.79,4.79,0,0,0,3.37-1.08,3.64,3.64,0,0,0,0-5.33,4.79,4.79,0,0,0-3.39-1.08,4.39,4.39,0,0,0-3.25,1.17,3.82,3.82,0,0,0-1.1,2.79,3.26,3.26,0,0,0,1.11,2.52A4.71,4.71,0,0,0,212.75,171Zm0-18.15a3.8,3.8,0,0,0-2.88,1.08,3.64,3.64,0,0,0-1.05,2.63,3.43,3.43,0,0,0,1.14,2.79,4.36,4.36,0,0,0,2.93,1,4,4,0,0,0,2.79-1,3.57,3.57,0,0,0,1.1-2.79,3.66,3.66,0,0,0-1-2.63A4,4,0,0,0,212.72,152.82Z"/><path d="M222.22,178.13l3.46-8.42H230l-4.71,8.42Z"/><path d="M237.49,170.61h10.22v3.06H232.63v-2.92a47.19,47.19,0,0,0,7.65-6.86q3.1-3.54,3.11-6.46a4.08,4.08,0,0,0-1.19-3.15,4.64,4.64,0,0,0-3.27-1.1,9.16,9.16,0,0,0-5.66,2.16v-3.49a9.85,9.85,0,0,1,6.16-2,8.12,8.12,0,0,1,5.47,1.85,6.59,6.59,0,0,1,2.16,5.28Q247.06,163.33,237.49,170.61Z"/><path d="M251.24,154.59v-3.42a9.65,9.65,0,0,1,5-1.3,8.25,8.25,0,0,1,5.63,1.78,5.69,5.69,0,0,1,2,4.48,6.13,6.13,0,0,1-.95,3.41,5.89,5.89,0,0,1-2.83,2.21,5.8,5.8,0,0,1,3.21,1.91,5.35,5.35,0,0,1,1.15,3.53,6.2,6.2,0,0,1-2.09,4.8,8.44,8.44,0,0,1-5.87,1.89,13.3,13.3,0,0,1-6-1.22V169.2a12.08,12.08,0,0,0,5.83,1.44,4.84,4.84,0,0,0,3.33-1.06,3.44,3.44,0,0,0,1.21-2.72,3,3,0,0,0-1.33-2.66,7,7,0,0,0-4-.94h-1.44v-3h1.44a5.48,5.48,0,0,0,3.33-1,3.19,3.19,0,0,0,1.35-2.72,3.09,3.09,0,0,0-1.1-2.59,4.7,4.7,0,0,0-3-.86A9,9,0,0,0,251.24,154.59Z"/><path d="M272.3,170.61h10.22v3.06H267.44v-2.92a47.19,47.19,0,0,0,7.65-6.86q3.11-3.54,3.11-6.46a4.08,4.08,0,0,0-1.19-3.15,4.64,4.64,0,0,0-3.27-1.1,9.16,9.16,0,0,0-5.66,2.16v-3.49a9.85,9.85,0,0,1,6.16-2,8.12,8.12,0,0,1,5.47,1.85,6.59,6.59,0,0,1,2.16,5.28Q281.87,163.33,272.3,170.61Z"/></g></svg>