<?xml version="1.0" encoding="utf-8"?>
<!-- Generator: Adobe Illustrator 16.0.0, SVG Export Plug-In . SVG Version: 6.00 Build 0)  -->
<!DOCTYPE svg PUBLIC "-//W3C//DTD SVG 1.1//EN" "http://www.w3.org/Graphics/SVG/1.1/DTD/svg11.dtd">
<svg version="1.1" id="Layer_1" xmlns="http://www.w3.org/2000/svg" xmlns:xlink="http://www.w3.org/1999/xlink" x="0px" y="0px"
	 width="60px" height="60px" viewBox="0 0 60 60" enable-background="new 0 0 60 60" xml:space="preserve">
<path fill="#5449D2" d="M-1389-485c0,11,0,22.871,0,34.556c0,7.384,0,14.768,0,22.153c0,5.811-0.605,12.392,0.674,17.835
	c0.371,1.577,0.563,3.218,1.052,4.813c0.931,3.036,2.303,5.782,3.473,8.876c2.231,5.906,5.946,10.619,10.592,14.824
	c3.848,3.48,7.518,6.141,11.982,8.362l-2.35-1.018L-473,164.279V-485H-1389z"/>
<path fill="#FE825A" d="M-896.862,164.087c-0.046-0.002-0.092,0-0.138-0.002V166L-896.862,164.087z"/>
<path fill="#FE825A" d="M-36.431,535.715c0.094,0.08,0.199,0.15,0.296,0.228L-36,536L-36.431,535.715z"/>
<path fill="#FE825A" d="M-326.656,509.141c0.631,0.627,1.176,1.357,1.656,2.029v-64.017l0.311,0.538
	c-0.229-0.443,0.172-1.029,0.084-1.512c-0.09-0.479-0.26-0.928-0.396-1.401c-1.008-3.503-2.551-6.976-4.689-10.035
	c-1-1.431-2.318-2.554-3.57-3.75c-1.137-1.09-2.621-1.903-3.873-2.897L-1198,58.153V515h873L-326.656,509.141z"/>
<polygon fill="#5449D2" points="0.486,59.965 10.364,59.965 18.341,42.175 27.234,42.175 27.234,0.641 "/>
<polygon fill="#5449D2" points="32.314,0.14 32.314,42.175 41.495,42.175 49.563,59.965 59.514,59.965 "/>
<polygon fill="#F2F2F2" stroke="#F2F2F2" stroke-miterlimit="10" points="37.906,34.262 32.314,21.93 32.314,34.262 "/>
<polygon fill="#F2F2F2" stroke="#F2F2F2" stroke-miterlimit="10" points="21.892,34.262 27.234,34.262 27.234,22.35 "/>
<polygon fill="#FE825A" stroke="#FE825A" stroke-miterlimit="10" points="38.485,33.098 32.314,19.489 32.314,33.098 "/>
<polygon fill="#FE825A" stroke="#FE825A" stroke-miterlimit="10" points="21.161,33.098 27.234,33.098 27.234,19.558 "/>
</svg>
